<svg width="24" height="24" viewBox="0 0 24 24" fill="none" xmlns="http://www.w3.org/2000/svg">
<path d="M15.2083 16.5804H20.7083" stroke="#878A99" stroke-width="1.5" stroke-linecap="round" stroke-linejoin="round"/>
<path d="M18.4167 18.872L20.7084 16.5804L18.4169 14.2887" stroke="#878A99" stroke-width="1.5" stroke-linecap="round" stroke-linejoin="round"/>
<path d="M20.7084 12.9138V5.58044C20.7084 4.82105 20.0928 4.20544 19.3334 4.20544H4.66675C3.90736 4.20544 3.29175 4.82105 3.29175 5.58044V18.4138C3.29175 19.1732 3.90736 19.7888 4.66675 19.7888H14.0491" stroke="#878A99" stroke-width="1.5" stroke-linecap="round" stroke-linejoin="round"/>
<path d="M8 13.6637H9.2C9.2 14.2637 10.022 14.7748 11 14.7748C11.978 14.7748 12.8 14.2637 12.8 13.6637C12.8 13.0526 12.176 12.8304 10.856 12.536C9.584 12.2415 8 11.8748 8 10.3304C8 9.33596 8.882 8.49151 10.1 8.20818V6.99707H11.9V8.20818C13.118 8.49151 14 9.33596 14 10.3304H12.8C12.8 9.7304 11.978 9.21929 11 9.21929C10.022 9.21929 9.2 9.7304 9.2 10.3304C9.2 10.9415 9.824 11.1637 11.144 11.4582C12.416 11.7526 14 12.1193 14 13.6637C14 14.6582 13.118 15.5026 11.9 15.786V16.9971H10.1V15.786C8.882 15.5026 8 14.6582 8 13.6637Z" fill="#878A99"/>
</svg>
