<svg width="24" height="24" viewBox="0 0 24 24" fill="none" xmlns="http://www.w3.org/2000/svg">
<g clip-path="url(#clip0_233_6602)">
<path fill-rule="evenodd" clip-rule="evenodd" d="M8.04047 5.54136L4.2974 7.14712V16.6711L8.04047 18.2769V5.54136ZM8.19224 4.06451C8.73447 3.83189 9.33787 4.22961 9.33787 4.81964V18.9986C9.33787 19.5886 8.73447 19.9864 8.19224 19.7537L3.49774 17.7398C3.19576 17.6103 3 17.3133 3 16.9847V6.83355C3 6.50496 3.19576 6.20797 3.49774 6.07842L8.19224 4.06451ZM9.91946 5.8546C9.91946 5.49633 10.2099 5.2059 10.5682 5.2059H14.7198C15.1736 5.2059 15.5415 5.57378 15.5415 6.02759V8.01693C15.5415 8.3752 15.2511 8.66563 14.8928 8.66563C14.5346 8.66563 14.2441 8.3752 14.2441 8.01693V6.5033H10.5682C10.2099 6.5033 9.91946 6.21287 9.91946 5.8546ZM14.8928 15.1526C15.2511 15.1526 15.5415 15.4431 15.5415 15.8013V17.7907C15.5415 18.2445 15.1736 18.6124 14.7198 18.6124H10.5682C10.2099 18.6124 9.91946 18.3219 9.91946 17.9637C9.91946 17.6054 10.2099 17.315 10.5682 17.315H14.2441V15.8013C14.2441 15.4431 14.5346 15.1526 14.8928 15.1526Z" fill="#878A99"/>
<path fill-rule="evenodd" clip-rule="evenodd" d="M11.6493 11.4767C11.6493 11.1184 11.9397 10.828 12.298 10.828L19.2175 10.828C19.5757 10.828 19.8662 11.1184 19.8662 11.4767C19.8662 11.835 19.5757 12.1254 19.2175 12.1254L12.298 12.1254C11.9397 12.1254 11.6493 11.835 11.6493 11.4767Z" fill="#878A99"/>
<path fill-rule="evenodd" clip-rule="evenodd" d="M17.0198 8.43242C17.268 8.17407 17.6787 8.16586 17.937 8.41407L20.9999 11.3569L17.955 14.5212C17.7066 14.7794 17.2959 14.7873 17.0378 14.5389C16.7796 14.2905 16.7717 13.8798 17.0201 13.6217L19.1648 11.3929L17.0381 9.34964C16.7798 9.10142 16.7716 8.69077 17.0198 8.43242Z" fill="#878A99"/>
</g>
<defs>
<clipPath id="clip0_233_6602">
<rect width="24" height="24" fill="white" transform="translate(0 -0.00292969)"/>
</clipPath>
</defs>
</svg>
