<svg width="24" height="24" viewBox="0 0 24 24" fill="none" xmlns="http://www.w3.org/2000/svg">
<g clip-path="url(#clip0_233_6605)">
<g clip-path="url(#clip1_233_6605)">
<path d="M19.0243 16.225C18.4612 15.6613 17.8031 15.2013 17.0804 14.866C18.0996 14.0403 18.7498 12.7803 18.7498 11.3674C18.7498 8.87443 16.6709 6.82924 14.178 6.86748C11.7233 6.90573 9.7456 8.90592 9.7456 11.3674C9.7456 12.7803 10.3981 14.0403 11.4151 14.866C10.6922 15.2011 10.0341 15.6611 9.47111 16.225C8.24265 17.4557 7.54517 19.0801 7.50017 20.8126C7.49957 20.8366 7.50378 20.8605 7.51256 20.8828C7.52133 20.9052 7.5345 20.9256 7.55127 20.9428C7.56804 20.96 7.58809 20.9736 7.61023 20.983C7.63236 20.9923 7.65614 20.9971 7.68016 20.9971H8.94013C9.03687 20.9971 9.11787 20.9206 9.12012 20.8238C9.16287 19.5189 9.6916 18.2971 10.6208 17.3702C11.0963 16.8921 11.6619 16.5132 12.2849 16.2552C12.9078 15.9972 13.5757 15.8653 14.25 15.8672C15.6202 15.8672 16.9094 16.4005 17.8791 17.3702C18.8061 18.2971 19.3348 19.5189 19.3798 20.8238C19.3821 20.9206 19.4631 20.9971 19.5598 20.9971H20.8198C20.8438 20.9971 20.8676 20.9923 20.8897 20.983C20.9118 20.9736 20.9319 20.96 20.9487 20.9428C20.9654 20.9256 20.9786 20.9052 20.9874 20.8828C20.9962 20.8605 21.0004 20.8366 20.9998 20.8126C20.9548 19.0801 20.2573 17.4557 19.0243 16.225ZM14.25 14.2473C13.4805 14.2473 12.756 13.948 12.2138 13.4035C11.9417 13.1336 11.7267 12.8115 11.5817 12.4567C11.4368 12.1018 11.3648 11.7214 11.3701 11.3381C11.3768 10.6001 11.6715 9.8869 12.1868 9.35816C12.7268 8.80468 13.449 8.49644 14.2207 8.48744C14.9834 8.48069 15.7237 8.77768 16.2682 9.31091C16.8261 9.85765 17.1321 10.5889 17.1321 11.3674C17.1321 12.1368 16.8329 12.8591 16.2884 13.4035C16.0213 13.672 15.7036 13.8847 15.3537 14.0295C15.0038 14.1744 14.6287 14.2484 14.25 14.2473ZM8.61389 11.9613C8.59364 11.7656 8.58239 11.5676 8.58239 11.3674C8.58239 11.0096 8.61614 10.6609 8.67913 10.3211C8.69488 10.2401 8.65213 10.1569 8.57789 10.1231C8.2719 9.98589 7.99065 9.7969 7.74766 9.55841C7.46133 9.28078 7.23602 8.94652 7.0861 8.57695C6.93618 8.20738 6.86494 7.81061 6.87694 7.41197C6.89719 6.68974 7.18743 6.00351 7.69366 5.48603C8.2494 4.91679 8.99637 4.6063 9.7906 4.6153C10.5083 4.62205 11.2013 4.89879 11.7255 5.38928C11.9033 5.55577 12.0563 5.74027 12.1845 5.93826C12.2295 6.00801 12.3173 6.03726 12.3938 6.01026C12.7898 5.87301 13.2083 5.77627 13.638 5.73127C13.764 5.71777 13.836 5.58277 13.7797 5.47028C13.0485 4.02357 11.5545 3.0246 9.8266 2.9976C7.33142 2.95935 5.25248 5.00454 5.25248 7.49522C5.25248 8.90817 5.90271 10.1681 6.92193 10.9939C6.20646 11.3246 5.54723 11.7813 4.97574 12.3528C3.74278 13.5835 3.0453 15.208 3.0003 16.9427C2.9997 16.9667 3.00391 16.9906 3.01269 17.013C3.02146 17.0353 3.03463 17.0557 3.0514 17.0729C3.06818 17.0901 3.08822 17.1037 3.11036 17.1131C3.1325 17.1224 3.15627 17.1272 3.1803 17.1272H4.44251C4.53926 17.1272 4.62025 17.0507 4.6225 16.9539C4.66525 15.649 5.19399 14.4273 6.12321 13.5003C6.78469 12.8388 7.59467 12.3798 8.47889 12.1571C8.56664 12.1346 8.62513 12.0513 8.61389 11.9613Z" fill="#878A99"/>
</g>
</g>
<defs>
<clipPath id="clip0_233_6605">
<rect width="24" height="24" fill="white" transform="translate(0 -0.00292969)"/>
</clipPath>
<clipPath id="clip1_233_6605">
<rect width="22" height="22" fill="white" transform="translate(1 0.99707)"/>
</clipPath>
</defs>
</svg>
